<svg xmlns="http://www.w3.org/2000/svg" viewBox="0 0 640 512"><!--!Font Awesome Free 6.5.2 by @fontawesome - https://fontawesome.com License - https://fontawesome.com/license/free Copyright 2024 Fonticons, Inc.--><path fill="#deb992" d="M320 32c-8 0-16 1-24 4L16 137c-10 4-16 13-16 23s6 19 16 23l58 20c-17 26-26 57-26 89v28c0 28-11 58-22 81-7 13-14 26-23 37-3 5-4 10-2 15s6 9 11 11l64 16c4 1 9 0 12-2s7-7 8-11c8-43 4-81-3-109-3-14-7-28-13-41v-25c0-30 10-59 28-82 13-15 30-28 49-35l157-62c8-3 18 1 21 9s-1 17-9 21l-157 61c-13 5-23 13-32 22l159 58c8 2 16 4 24 4s16-2 24-4l280-101c10-4 16-13 16-23s-6-19-16-23L344 36c-8-3-16-4-24-4zM128 408c0 35 86 72 192 72s192-37 192-72l-15-145-142 51c-12 4-23 6-35 6s-23-2-34-6l-143-51-15 145z"/></svg>