<svg fill="#DEB992" height="256" width="256" xmlns="http://www.w3.org/2000/svg" viewBox="0 0 512 512"><path d="M389.3 497.5l-51.8-317.8V83.5c0-2.8-1.1-5.4-3-7.2L263.3 5.6c-4-4-10.4-4-14.3 0l-71.4 70.7c-1.9 1.8-3 4.4-3 7.2v96.2l-51.7 317.8c-.5 3 .4 6 2.3 8.2 2 2.3 4.8 3.6 7.8 3.6h246.4c3 0 5.8-1.3 7.8-3.6 1.8-2.2 2.6-5.2 2.2-8.2zM256 27.2l46.6 46.1h-93.2L256 27.2zm-61.2 66.5h122.4v76.7H194.8V93.7zM230 489l10.5-64.6c1.2-7.6 7.7-13.1 15.4-13.1s14.2 5.5 15.4 13.1l10.5 64.6H230zm72.6 0l-11-67.8c-2.9-17.5-17.8-30.3-35.6-30.3s-32.7 12.7-35.6 30.3l-11 67.8h-64.6l48.5-298.2h125.4L367.2 489h-64.6zM511.7 78.9c-1.4-5.5-7-8.8-12.4-7.4L358 107.4c-5.5 1.4-8.8 7-7.4 12.4 1.2 4.6 5.3 7.7 9.9 7.7.8 0 1.7-.1 2.5-.3l141.4-35.9c5.4-1.3 8.6-6.9 7.3-12.4zM476.4 163.2l-14.8-3c-5.5-1.1-11 2.4-12 8-1 5.5 2.4 11 8 12l14.8 3 2 .2c4.7 0 9-3.3 10-8.1 1.1-5.6-2.4-11-8-12.1zM409 149.3l-45.5-9.3c-5.5-1-11 2.4-12 8-1 5.5 2.4 11 8 12l45.4 9.3 2 .2c4.7 0 9-3.3 10-8 1.1-5.7-2.5-11.1-7.9-12.2zM154 107.4L12.8 71.5c-5.5-1.4-11 1.9-12.4 7.4-1.4 5.5 2 11 7.4 12.4l141.4 35.9c.8.2 1.7.3 2.5.3 4.6 0 8.7-3 9.9-7.7 1.3-5.5-2-11-7.5-12.4zM160.5 148c-1.1-5.6-6.5-9-12-8L35.6 163.1c-5.5 1.1-9 6.5-8 12 1 4.8 5.2 8.1 10 8.1.7 0 1.4 0 2-.2l112.9-23.2c5.5-1.1 9.1-6.5 8-11.9z"/><path d="M256 304.3c-5.6 0-10.2 4.6-10.2 10.2V342c0 5.6 4.6 10.2 10.2 10.2s10.2-4.6 10.2-10.2v-27.4c0-5.5-4.6-10.2-10.2-10.2zM256 228.4c-5.6 0-10.2 4.6-10.2 10.2V266c0 5.6 4.6 10.2 10.2 10.2s10.2-4.6 10.2-10.2v-27.4c0-5.6-4.6-10.2-10.2-10.2z"/></svg>