<svg xmlns="http://www.w3.org/2000/svg" viewBox="0 0 448 512"><!--!Font Awesome Free 6.5.2 by @fontawesome - https://fontawesome.com License - https://fontawesome.com/license/free Copyright 2024 Fonticons, Inc.--><path fill="#deb992" d="M416 32H32C14 32 0 47 0 64v384c0 18 14 32 32 32h384c18 0 32-14 32-32V64c0-17-14-32-32-32zM135 416H69V202h67v214zm-33-243c-21 0-38-17-38-38s17-39 38-39 39 17 39 39c0 21-18 38-39 38zm282 243h-66V312c0-25-1-57-35-57s-40 27-40 55v106h-66V202h64v29h1c9-16 30-34 63-34 67 0 79 44 79 102v117z"/></svg>