<svg width="800" height="800" viewBox="0 -183 512 512" xmlns="http://www.w3.org/2000/svg"><g fill="none" fill-rule="evenodd"><path d="M476.7 60.5c-.5 0-1 1-1 1.7l-.2 20c0 .3.3.7.6.7l7.6.2c4 0 6.3-.6 7.6-1.1 3.3-1.7 5-5.3 5-9.2 0-9-6.4-12.4-15.7-12.4-.6 0-2.5 0-3.9.2zm23.8 41.3c0-9.1-6.7-14.2-19-14.2h-5.4c-.3 0-.6.3-.6.6 0 6.6 0 17 .2 21 .2 1.8 1.5 4.2 3 5 1.7 1 5.4 1 8 1 7.3 0 13.7-4 13.7-13.5zM458 55.5c1 0 3.7.3 10.8.3l18.6-.2c8 0 19.1 2.9 19.1 14.9 0 6-4.2 10.6-9.6 13-.3 0-.3.3 0 .4 7.8 2 14.6 6.7 14.6 15.8 0 8.9-5.5 14.5-13.6 18-4.9 2-11 2.9-17.2 2.9-4.7 0-17.3-.6-24.4-.4-.7-.3.6-3.6 1.3-4.2 1.7 0 3-.2 4.7-.7 2.5-.6 2.8-1.4 3.1-5.2.2-3.2.2-14.7.2-22.8V64.9c0-3-1-3.8-3-4.3l-6.4-1c-.5-.5 1.1-3.6 1.7-4zm-53.2 57.4c2.2 1.8 6.6 2.5 10.4 2.5 5 0 10-1 14.8-5.3 5-4.4 8.3-11.3 8.3-22.1 0-10.4-4-19-12-24-4.6-2.8-10.5-4-17.3-4-2 0-4 0-5.2.7-.3.2-1 1-1 1.5-.2 1.8-.2 16-.2 24.4 0 8.6 0 20.6.2 22 0 1.4.6 3.5 2 4.4zm-21-57.4l11.7.3c5.8 0 10-.3 21-.3 9.2 0 17 2.5 22.5 7.2 6.7 5.8 10.2 13.8 10.2 23.6 0 14-6.4 22-12.7 26.6-6.4 4.7-14.7 7.5-26.5 7.5l-26-.3c-.5-.8.7-4 1.5-4.2 2.4-.3 3-.4 4.2-.8 2-.7 2.3-1.8 2.6-5.2.3-6.4.2-14 .2-22.7V65c-.3-3.2-1.7-4-4.4-4.6l-5.8-1c-.4-.6 1.3-3.5 1.8-4zM272 116.4c-2.3-.3-4-.6-6-1.6-.3-.2-.7-1.1-.7-1.5-.2-3.2-.2-12.5-.2-18.6 0-5-.8-9.3-3-12.4-2.5-3.5-6-5.5-10.7-5.5-4 0-9.5 2.8-14 6.6 0 0-.8.7-.7-.3l.3-4.4c0-1.3-.6-2-.6-2-3 1.5-11.3 3.4-14.3 3.7-2.2.5-2.8 2.6-.5 3.3 2.5.7 4.2 1.6 5.4 2.4 1 .7.8 1.8.8 2.6 0 7 0 17.5-.2 23.3 0 2.3-.7 3-2.4 3.5h.2c-1.3.3-2.3.6-3.9.7-.6.6-.6 3.5 0 4.2 1 0 6.4-.3 10.8-.3 6 0 9.2.3 10.8.3.6-.7.8-3.5.5-4.2-1.8 0-3-.3-4.2-.6-1.7-.4-2-1.2-2.2-3.1-.2-5-.2-15.2-.2-22.2 0-2 .6-3 1.1-3.4 2.1-1.8 5.5-3.1 8.6-3.1 3 0 5 1 6.4 2 2 1.8 2.7 4 3 5.9.5 4 .3 11.8.3 18.6 0 3.7-.3 4.6-1.7 5-.6.3-2.3.6-4.2.8-.6.6-.5 3.5 0 4.2 2.7 0 5.8-.3 10.4-.3 5.7 0 9.4.3 11 .3.4-.6.5-3.2.2-4zM297.6 81c-4.9 0-8 3.8-8 9.7 0 6 2.7 13 10.2 13 1.3 0 3.7-.6 4.8-1.8 1.8-1.7 3-5 3-8.5 0-7.7-3.8-12.3-10-12.3zm-.6 40.8c-1.8 0-3 .6-4 1-3.9 2.5-5.6 4.9-5.6 7.8 0 2.7 1 4.8 3.2 6.6 2.7 2.3 6.4 3.4 11 3.4 9.4 0 13.6-5 13.6-10 0-3.5-1.8-5.8-5.4-7.1-2.6-1.1-7.3-1.7-13-1.7zm.6 24c-5.6 0-9.7-1.2-13.2-4-3.4-2.5-4.9-6.4-4.9-9 0-.7.2-2.8 1.8-4.6 1-1.1 3.2-3.2 8.5-6.8.2 0 .3-.2.3-.4s-.2-.4-.4-.5c-4.3-1.7-5.6-4.3-6-5.8v-.2c0-.6-.3-1.1.6-1.7l2.6-1.7c1.6-1 3.2-2 4.2-2.8.2-.2.2-.4.2-.6 0-.2-.2-.4-.4-.5-6.5-2.1-9.7-7-9.7-14.1 0-4.7 2.1-9 6-11.6 2.6-2 9-4.5 13.3-4.5h.3c4.3 0 6.7 1 10.2 2.2 1.8.6 3.6 1 6 1 3.6 0 5.2-1.1 6.5-2.4 0 .2.3.6.4 1.8 0 1.2-.3 3-1.2 4.2-.7 1-2.4 1.8-4 1.8h-.5l-2.4-.4-.4.2v.8c.2.8.6 3.3.6 4 0 7.6-3 10.9-6.3 13.4-3 2.3-6.7 3.8-10.8 4.2h-2.5c-.7.2-2.6 1-2.6 2.7 0 1.4.8 3 4.8 3.3.8 0 1.7 0 2.6.2 5.3.4 11.8.8 15 1.8 4.1 1.6 7 5.4 7 9.9 0 6.8-5 13.2-13 17.2-4 1.8-8 2.7-12.4 2.7zm52.6-64.3c-2 0-3.7.5-5 1.4-3.6 2.2-5.4 6.6-5.4 13 0 12 6 20.7 14.8 20.7 2.6 0 4.6-.7 6.4-2.2 2.7-2.2 4-6.6 4-12.8 0-12-6-20-14.8-20zM352 121c-15.7 0-21.3-11.5-21.3-22.3 0-7.6 3-13.4 9.1-17.5 4.3-2.7 9.5-4.2 14.1-4.2 12 0 20.4 8.6 20.4 21 0 8.4-3.3 15-9.7 19-3 2-8.3 4-12.6 4zM187.4 81.6c-2 0-3.7.5-5 1.4-3.6 2.2-5.4 6.6-5.4 13.1 0 12 6 20.6 14.8 20.6 2.6 0 4.6-.7 6.4-2.2 2.7-2.2 4-6.6 4-12.8 0-12-6-20-14.8-20zm1.7 39.5c-15.7 0-21.3-11.5-21.3-22.3 0-7.6 3-13.4 9.1-17.5 4.3-2.7 9.5-4.2 14.1-4.2 12 0 20.4 8.6 20.4 21 0 8.4-3.3 15-9.7 19.1-3 2-8.2 4-12.6 4zm-105.5-1c-.2-.3-.4-1.1-.3-2.1 0-.7.2-1.2.3-1.4l4-.8c1.8-.5 2.6-1.5 2.7-3.8.3-5.5.3-16 .2-23.3v-.2c0-.8 0-1.8-1-2.6-1.5-1-3.2-1.8-5.5-2.4-.8-.3-1.4-.7-1.3-1.3 0-.6.6-1.2 1.8-1.4 3-.3 11-2.2 14.1-3.6.2.2.5.7.5 1.5v1l-.2 3.4c0 .4.4.6.7.6.2 0 .4 0 .6-.2 6-4.6 11.3-6.3 14-6.3 4.5 0 8 2.1 10.7 6.6.2.3.4.4.6.4.2 0 .5 0 .6-.3 5.4-4.2 10.9-6.6 14.5-6.6 8.6 0 13.7 6.4 13.7 17.2v18.9c0 .5.6 2 1.7 2.2 1.3.6 3 1 5.4 1.3.2.6-.2 3-.6 3.5h-2.3a136.2 136.2 0 0 0-7-.2c-5.7 0-8.7 0-11.5.3-.2-.7-.3-3 0-3.5l3.5-.8c1.8-.6 2.3-1.4 2.4-3.8 0-1.8.4-16.7-.2-20.3-.6-3.7-3.3-8-9.4-8-2.3 0-6 1-9.4 3.6-.2.2-.4.6-.4 1 .4 2 .4 4.2.4 7.6v17c0 2 1.2 2.5 2.2 2.9.6 0 1 .2 1.4.3l3 .6c.2.4.2 1.6 0 2.6 0 .6-.3.8-.4 1l-11-.2h-10c0-.2-.3-.8-.3-1.8 0-.8.2-1.5.4-1.7l1.3-.2 3-.6c1.6-.5 2.1-1.3 2.2-3.3.3-4.6.6-17.8 0-21.1-1.1-5.4-4.2-8-9-8-2.9 0-6.5 1.4-9.4 3.6-.5.4-.8 1.3-.8 2.1v23.9c0 1.1.5 2.4 2.6 2.9l2.1.4 1.7.3c.2.6 0 2.8-.3 3.5h-3.3l-7.2-.2c-3.2 0-5.5 0-7.4.2-1.3-.2-2.3-.2-3.4-.2z" fill="#deb992"/><path d="M35 142.3l-3.7-1.3s.5-19.3-6.5-20.7c-4.6-5.4.7-227 17.4-.7 0 0-5.7 3-6.7 7.8-1.1 4.8-.4 15-.4 15z" fill="#FFF"/><path d="M35 142.3l-3.7-1.3s.5-19.3-6.5-20.7c-4.6-5.4.7-227 17.4-.7 0 0-5.7 3-6.7 7.8-1.1 4.8-.4 15-.4 15z" fill="#A6A385"/><path d="M37 123.7s33.2-21.8 25.5-67c-7.5-33-25.1-43.7-27-48-2.2-3-4.2-8.1-4.2-8.1l1.4 91.6s-2.9 28 4.4 31.5" fill="#FFF"/><path d="M37 123.7s33.2-21.8 25.5-67c-7.5-33-25.1-43.7-27-48-2.2-3-4.2-8.1-4.2-8.1l1.4 91.6s-2.9 28 4.4 31.5" fill="#deb992"/><path d="M29.3 124.9S-1.8 103.7 0 66.3C1.8 28.9 23.8 10.5 28 7.2c2.8-3 2.9-4 3-7 2 4.2 1.6 62.1 1.8 69 .8 26.3-1.5 50.8-3.6 55.7z" fill="#FFF"/><path d="M29.3 124.9S-1.8 103.7 0 66.3C1.8 28.9 23.8 10.5 28 7.2c2.8-3 2.9-4 3-7 2 4.2 1.6 62.1 1.8 69 .8 26.3-1.5 50.8-3.6 55.7z" fill="#deb992"/></g></svg>